<?xml version="1.0" encoding="UTF-8"?>
<svg id="Logo" xmlns="http://www.w3.org/2000/svg" viewBox="0 0 1000 1000">
  <defs>
    <style>
      .cls-1 {
        fill: #e8ebe7;
        stroke-width: 0px;
      }
    </style>
  </defs>
  <path class="cls-1" d="M462.38,761.66l-183.4-164.06,23.93-51.57,39.72-31.94,27.7-4,30.53,21.72,12.41-14.29-26.82-23.57-5.04-6.19-5.34-25.27,2.32-5.47-10.08-9.07-.94-1.5c-8.06-12.9-26.5-42.39-26.5-42.39l-6.34-10.13,3.13-2.16-16.93-10.39,56.14-86.58,37.03-22.18,1.24-8.37,24.4-15.54,22.7,1.81,71.79-8.6,26.29,7.97,30.63,27.08,20.29,37.41,111.12,4.9-12.82,40.04-49.47,16.52c-4.09,1.37-6.5,2.17-8.07,2.65v.04s-17.59,5.88-17.59,5.88l-8.79,20.05,24.76,46.61-21.25,30.51-20.56,75.35-2.14,7.78-45.45,7.13-6.87,8.85-13.2,2.78-4.25,9.13-1.62,1.13,13.99,8.54-1.9,37.42,16.64,37.82-8.91,7.38-92.48,76.76ZM309.45,591.32l153.54,137.34,70.3-58.35-11.42-25.97,1.44-28.48-3.87-2.36-50.29-4.22,47.68-33.33,6.7-14.37,16.46-3.47,7.33-9.43,39.28-6.17,19.56-71.69,14.99-21.52-23.27-43.81,18.1-41.29,30.06-10.04c5.32-1.77,21.01-7.01,35-11.69l-85.03-3.75-24.92-45.96-23.23-20.54-16.05-4.86-69.06,8.27-16.83-1.34-7.7,4.91-1.3,8.78-42.21,25.29-39.04,60.2,27.81,17.06-15.06,10.39c5.75,9.19,14.09,22.53,19.23,30.76l.04.04,20.66,18.62-6.19,14.64,2.46,11.63,29.55,25.98c1.52,1.33,3.27,2.87,4.93,4.33l9.35,8.2-43.58,50.2-40.86-29.08-11.03,1.59-29.84,23.99-13.67,29.46Z"/>
</svg>